<?xml version="1.0" standalone="no"?>
<!DOCTYPE svg PUBLIC "-//W3C//DTD SVG 20010904//EN"
 "http://www.w3.org/TR/2001/REC-SVG-20010904/DTD/svg10.dtd">
<svg version="1.0" xmlns="http://www.w3.org/2000/svg"
 width="700.000000pt" height="481.000000pt" viewBox="0 0 700.000000 481.000000"
 preserveAspectRatio="xMidYMid meet">
<metadata>
Created by potrace 1.16, written by Peter Selinger 2001-2019
</metadata>
<g transform="translate(0.000000,481.000000) scale(0.100000,-0.100000)"
fill="#000000" stroke="none">
<path d="M2826 4786 c-3 -13 -22 -38 -41 -55 -19 -17 -35 -34 -35 -38 0 -13
-39 -43 -55 -43 -19 0 -85 -40 -85 -51 0 -15 -2 -23 -11 -46 -6 -17 -2 -36 17
-72 24 -45 33 -53 130 -101 90 -45 108 -58 125 -92 28 -56 72 -80 129 -72 25
3 50 10 56 15 30 24 137 -26 152 -71 11 -30 5 -50 -11 -46 -7 1 -9 1 -4 -1 4
-3 7 -11 7 -19 0 -12 -9 -14 -45 -8 -39 5 -44 4 -39 -10 3 -9 10 -16 16 -16 5
0 7 -4 3 -10 -6 -10 -24 -6 -64 13 -19 10 -25 8 -36 -7 -19 -25 -8 -46 24 -47
14 0 90 -1 168 -2 98 -1 146 -6 154 -14 11 -11 10 -13 -2 -14 -7 0 0 -7 16
-15 l30 -14 -45 2 c-64 2 -225 -11 -290 -24 -30 -6 -135 -11 -232 -12 -206 -1
-214 -4 -261 -98 -35 -70 -49 -195 -40 -353 8 -129 8 -98 -1 -310 -4 -93 -12
-213 -19 -265 -15 -129 -14 -240 4 -281 23 -56 19 -263 -9 -387 -20 -90 -22
-110 -12 -159 7 -30 9 -70 5 -87 -3 -17 -10 -65 -15 -107 -5 -42 -18 -104 -30
-138 -15 -45 -20 -82 -18 -132 l3 -69 60 1 c60 0 141 12 151 22 3 3 1 14 -5
25 -7 13 -7 54 -1 128 5 60 14 190 20 289 19 342 32 490 46 538 15 56 88 169
144 226 52 52 82 56 150 20 53 -28 75 -44 182 -135 59 -50 107 -64 220 -64 53
0 93 -5 111 -15 42 -22 359 -12 673 21 l52 5 11 77 c7 42 16 118 21 167 12
126 36 232 61 266 11 16 17 34 13 41 -5 8 -2 9 10 5 13 -5 18 0 23 24 6 31 7
31 52 24 96 -14 246 -34 256 -34 6 0 2 4 -7 10 -23 13 -23 67 0 95 12 16 33
24 72 28 30 3 89 10 130 15 41 6 130 11 198 11 120 0 123 -1 147 -26 46 -49
30 -79 -71 -138 -42 -24 -72 -46 -68 -49 5 -2 28 -8 52 -12 34 -5 42 -10 38
-23 -3 -10 -8 -42 -12 -72 -3 -30 -13 -63 -21 -72 -10 -11 -12 -18 -5 -18 7 0
12 4 12 8 0 4 26 5 58 1 102 -13 442 -11 439 3 -2 11 -30 46 -86 107 -42 46
-71 100 -71 132 0 38 34 73 118 117 48 26 73 33 120 33 73 1 102 -7 102 -30 0
-9 13 -30 29 -45 16 -15 47 -70 70 -121 35 -80 40 -100 35 -137 -3 -24 -13
-53 -20 -65 -13 -21 -12 -23 13 -30 36 -10 117 -10 336 1 97 5 177 12 177 17
0 4 12 12 28 18 15 6 43 20 62 31 41 24 108 26 136 5 18 -14 17 -14 -14 -15
-22 0 -52 -13 -90 -40 l-57 -40 -290 -5 c-285 -5 -435 -12 -435 -22 0 -7 82
-79 124 -110 24 -19 43 -23 101 -23 109 0 127 -20 100 -107 -7 -21 -4 -23 28
-23 32 0 41 7 88 68 98 125 163 182 209 182 35 0 22 -19 -42 -61 -41 -26 -80
-63 -116 -111 -29 -39 -65 -86 -80 -106 l-27 -36 29 19 29 19 -8 -24 c-6 -21
-5 -23 6 -12 18 16 42 15 36 -2 -3 -7 0 -19 6 -25 8 -8 6 -11 -8 -11 -11 0
-38 -3 -59 -7 -36 -6 -39 -5 -34 15 4 12 4 22 2 22 -4 0 -286 -353 -372 -467
-42 -56 -60 -87 -56 -100 4 -13 3 -14 -3 -5 -8 10 -12 10 -23 -3 -12 -14 -11
-18 1 -26 10 -8 9 -9 -7 -4 -13 3 -24 1 -27 -7 -2 -7 -35 -50 -72 -96 -37 -46
-73 -95 -81 -110 -12 -23 -14 -24 -14 -7 0 11 8 32 18 46 29 44 222 299 289
382 35 44 63 88 63 99 0 10 4 17 9 13 9 -5 27 16 129 152 18 23 28 43 23 43
-6 0 -13 -4 -16 -10 -7 -11 -55 -9 -55 2 0 4 -21 7 -47 7 l-48 -2 40 -7 c22
-4 -104 -8 -280 -10 -176 -1 -312 -4 -302 -7 20 -5 15 -36 -10 -62 -10 -10
-13 -25 -8 -48 7 -40 -5 -40 -46 -1 -40 38 -35 83 11 102 8 3 -55 4 -140 1
-311 -11 -524 -25 -533 -34 -6 -6 -17 -7 -26 -2 -9 5 -30 7 -46 4 -24 -4 -34
-13 -50 -49 -11 -24 -23 -44 -27 -44 -13 0 -9 44 7 67 14 19 13 21 -10 27 -22
6 -24 9 -15 26 9 16 8 22 -5 26 -8 3 -15 10 -15 16 0 5 5 6 10 3 6 -3 10 -2
10 3 0 8 -429 22 -688 22 -123 0 -140 -8 -45 -20 l58 -7 -47 -2 c-26 0 -50 -6
-53 -11 -4 -6 -6 -144 -6 -307 1 -227 -2 -299 -11 -305 -10 -6 -10 -8 0 -8 8
0 12 -16 12 -44 0 -36 4 -46 20 -51 14 -5 20 -15 20 -38 0 -18 4 -39 10 -47 7
-12 12 -12 29 4 12 11 21 30 21 43 0 16 6 23 20 23 16 0 20 -7 20 -33 0 -20 8
-41 19 -51 18 -16 19 -15 32 29 9 30 19 45 30 45 12 0 15 -7 12 -25 -7 -34 31
-91 69 -104 40 -14 38 -14 38 9 0 16 -7 20 -35 20 -19 0 -35 5 -35 10 0 6 15
10 34 10 25 0 39 -7 53 -25 10 -14 33 -29 52 -35 32 -9 33 -8 28 15 -5 30 5
32 24 6 17 -23 84 -38 76 -17 -9 23 4 27 22 7 9 -10 31 -22 49 -25 30 -5 33
-4 27 14 -8 25 11 26 24 1 6 -11 24 -20 46 -23 29 -3 35 -1 35 16 0 18 1 18
19 2 10 -9 25 -14 34 -10 9 3 24 -1 32 -10 9 -9 24 -16 33 -16 13 0 14 2 4 9
-11 6 -7 13 14 30 14 11 31 21 35 21 16 0 9 -19 -11 -33 -31 -21 -10 -32 100
-51 193 -35 317 -58 400 -76 176 -37 200 -41 211 -34 7 4 9 3 6 -3 -4 -6 5
-13 23 -15 16 -2 27 -1 24 4 -3 4 0 8 7 8 7 0 21 7 31 17 23 21 35 11 13 -11
-15 -15 -15 -16 4 -16 12 0 21 -5 21 -11 0 -12 59 -3 75 12 6 6 15 24 22 42
l11 32 -3 -40 c-1 -21 -7 -41 -13 -43 -6 -2 -2 -12 9 -23 11 -11 26 -19 32
-16 7 2 14 4 17 3 3 0 18 7 34 17 30 20 46 16 28 -6 -7 -8 -9 -17 -5 -20 3 -4
-8 -7 -25 -7 -39 0 -51 -17 -20 -29 19 -8 15 -10 -24 -10 -46 -1 -61 10 -36
25 8 5 -7 13 -37 21 -68 17 -86 17 -61 -2 11 -8 28 -15 38 -15 10 0 18 -7 18
-16 0 -11 -5 -14 -16 -10 -9 3 -31 6 -50 6 -31 0 -35 3 -29 20 4 13 2 20 -7
21 -8 0 -6 3 4 7 10 4 -12 8 -48 8 l-66 2 43 -21 44 -21 -45 -5 c-57 -8 -43
-17 40 -25 83 -8 188 -24 268 -41 34 -7 62 -9 62 -5 0 4 10 6 22 2 17 -4 20
-2 15 11 -4 10 -2 17 5 17 7 0 6 5 -2 15 -7 8 -24 15 -37 15 -32 0 -25 25 7
26 13 1 26 7 28 13 2 6 8 11 14 11 5 0 8 -6 6 -12 -4 -12 31 -48 46 -48 9 0
117 -71 144 -94 26 -23 29 -38 5 -29 -10 4 -4 -6 13 -23 16 -16 49 -69 72
-117 39 -82 63 -117 42 -61 -17 45 -13 54 27 54 23 0 74 18 136 46 94 44 101
46 155 39 70 -10 101 -10 175 -1 78 10 92 32 100 164 7 110 44 298 84 432 4
13 5 13 13 0 13 -21 75 -13 133 16 27 13 56 24 65 24 11 0 -2 17 -35 48 -58
54 -74 92 -93 222 -13 88 -37 135 -68 135 -14 0 -18 14 -24 70 -8 83 -2 237
14 318 10 53 12 56 25 37 9 -12 25 -20 43 -20 18 0 42 -11 62 -28 18 -16 45
-32 61 -36 l27 -6 0 1195 0 1195 -582 0 c-401 -1 -578 -4 -565 -11 9 -5 17
-16 17 -24 0 -8 8 -20 18 -27 33 -25 65 -97 59 -134 -7 -39 -66 -136 -79 -128
-4 3 -11 -2 -14 -10 -3 -9 -10 -13 -16 -10 -5 3 -15 -1 -21 -9 -24 -30 -123
-39 -143 -13 -6 9 -19 47 -29 84 -9 37 -26 75 -37 86 -19 18 -22 18 -33 3 -15
-20 -61 -22 -72 -4 -12 21 -69 37 -81 25 -8 -8 -20 -6 -42 4 l-32 16 23 15
c21 15 21 19 9 42 -7 14 -14 41 -14 60 l-1 35 -322 0 c-191 0 -323 -4 -323 -9
0 -5 11 -22 24 -38 13 -15 25 -32 27 -38 2 -5 17 -19 33 -30 39 -26 66 -77 73
-136 l6 -48 -35 -6 c-23 -4 -50 0 -83 13 -28 11 -66 22 -85 26 -20 3 -50 20
-68 36 -18 17 -38 30 -44 30 -11 0 -6 97 8 168 l7 32 -876 0 -875 0 -6 -24z
m3034 -714 c51 -7 55 -9 61 -38 6 -30 4 -31 -40 -43 -30 -7 -126 -10 -281 -9
-169 2 -256 -1 -310 -11 -77 -14 -135 -16 -425 -12 -121 2 -189 -2 -235 -12
-65 -15 -168 -18 -793 -21 -219 -1 -259 1 -267 14 -19 30 -7 45 40 48 25 1
108 9 185 17 87 9 306 17 575 20 388 5 1248 40 1259 51 6 6 168 3 231 -4z
m680 -322 c22 -22 26 -69 10 -100 -14 -26 -37 -37 -123 -59 -60 -15 -85 -16
-143 -9 -104 15 -398 4 -457 -16 -40 -14 -59 -15 -126 -6 -43 6 -93 15 -112
20 -54 16 -166 12 -202 -6 -43 -22 -41 -19 -43 -65 -2 -48 -10 -57 -86 -97
-77 -41 -182 -49 -382 -31 -105 9 -341 13 -771 13 -485 1 -625 4 -642 14 -28
15 -53 62 -53 96 0 16 -9 32 -24 41 -22 14 -45 15 -191 7 -138 -8 -175 -7
-218 5 -29 8 -63 17 -77 20 -14 3 -31 10 -37 16 -57 44 82 68 462 78 165 4
343 13 395 18 358 41 552 51 859 44 219 -4 329 -3 386 6 128 19 151 20 323 3
154 -15 176 -15 350 3 137 13 230 17 351 12 91 -3 218 -2 281 2 216 14 248 13
270 -9z m-135 -1230 c-3 -6 1 -13 9 -16 9 -3 16 -12 16 -20 0 -8 -39 -112 -86
-232 -48 -119 -94 -239 -104 -267 -10 -27 -59 -158 -110 -290 -50 -132 -105
-277 -122 -322 -16 -46 -35 -86 -41 -90 -6 -4 -8 -1 -5 8 40 108 69 203 64
214 -3 8 -16 15 -28 15 -23 -1 -23 -1 -3 -16 19 -14 17 -15 -20 -8 -82 16 -87
14 -123 -51 -31 -56 -36 -42 -6 17 15 30 18 58 7 59 -5 0 -24 2 -44 5 -27 3
-40 -1 -54 -16 -10 -11 -24 -20 -32 -20 -7 0 -13 -4 -13 -10 0 -5 -16 -10 -35
-10 -19 0 -35 -5 -35 -11 0 -6 -12 3 -26 20 -28 34 -44 33 -43 -2 0 -21 1 -21
9 -2 l9 20 0 -20 c0 -11 -4 -27 -9 -35 -6 -10 -10 -11 -10 -2 0 8 -16 12 -46
12 l-47 0 6 33 c3 17 9 47 13 65 5 25 3 32 -9 32 -10 0 -21 -19 -32 -55 -14
-50 -18 -55 -45 -55 -38 0 -42 10 -30 66 6 26 9 49 6 51 -3 4 -307 43 -511 67
-22 3 -85 10 -140 17 -55 6 -109 12 -120 14 -11 1 -47 6 -80 10 -55 7 -108 24
-77 25 6 0 12 7 12 16 0 13 7 15 38 9 20 -4 44 -7 52 -7 8 0 110 -13 225 -29
116 -16 228 -32 250 -35 22 -3 65 -9 95 -14 133 -21 264 -32 267 -23 12 35 28
44 61 32 37 -13 38 -16 16 -47 -8 -12 -11 -22 -6 -22 6 0 22 28 36 63 28 64
28 56 2 -25 -9 -28 -11 -48 -5 -48 15 0 47 -33 58 -60 12 -31 13 -7 2 43 -7
31 -7 36 4 27 7 -6 18 -24 25 -40 7 -17 15 -30 19 -30 3 0 16 -3 29 -6 17 -5
22 -2 23 12 1 17 2 17 6 2 2 -10 9 -18 14 -18 22 0 6 -19 -18 -23 -27 -4 -26
-4 4 -6 25 -1 50 13 113 60 45 34 84 58 87 55 4 -3 -2 -13 -13 -21 -18 -14
-17 -14 11 -15 30 0 31 2 103 183 39 100 72 186 72 190 0 4 -15 7 -34 7 -34 0
-63 -21 -52 -39 3 -5 -12 -61 -34 -125 -22 -64 -40 -122 -40 -131 0 -9 -6 -12
-16 -8 -20 7 -15 35 32 173 48 144 50 135 -23 135 -68 0 -69 1 -12 65 30 35
30 35 24 8 -7 -26 -5 -28 26 -28 19 0 39 4 45 8 6 4 21 39 34 77 12 39 32 88
42 109 16 32 17 38 5 33 -10 -4 -3 12 16 39 17 24 35 44 40 44 14 0 2 -57 -30
-145 -16 -44 -28 -86 -25 -93 2 -6 -2 -12 -9 -12 -7 0 -10 -3 -6 -6 3 -4 0
-13 -8 -21 -23 -23 -18 -33 18 -33 39 0 30 -15 119 194 32 76 62 152 65 170
l6 31 -36 -40 c-37 -40 -45 -38 -27 9 7 19 6 26 -2 26 -8 0 -6 6 4 16 10 11
21 13 30 8 7 -5 50 -10 96 -11 80 -2 83 -1 95 24 9 21 8 27 -6 38 -21 15 -21
24 0 47 17 19 39 25 28 8z m74 -449 c-11 -51 -32 -65 -102 -71 -57 -5 -62 -7
-65 -30 -2 -14 -8 -29 -13 -34 -14 -15 -11 -29 6 -22 9 3 15 0 15 -9 0 -8 5
-15 10 -15 17 0 29 -46 23 -84 -5 -31 -10 -36 -40 -42 -19 -4 -37 -13 -40 -20
-3 -8 -12 -14 -19 -14 -8 0 -17 -6 -20 -14 -3 -8 -16 -17 -30 -20 -34 -9 -30
-26 6 -26 17 0 30 -2 30 -5 0 -3 -13 -17 -29 -32 -15 -16 -34 -45 -42 -66 -13
-38 -13 -40 15 -63 32 -28 29 -37 -14 -37 -18 0 -37 8 -50 24 l-20 24 6 -30
c5 -25 4 -28 -7 -17 -11 10 -16 8 -26 -10 -39 -71 19 97 151 437 37 94 83 213
103 265 81 215 115 295 131 313 16 18 17 9 23 -174 3 -107 2 -209 -2 -228z
m-819 86 c-22 -75 -40 -139 -40 -142 0 -4 26 -6 58 -5 70 3 98 -6 81 -26 -6
-8 -23 -14 -38 -13 l-26 1 25 8 c23 7 23 8 3 9 -12 1 -25 -4 -29 -10 -4 -7
-30 -9 -78 -5 -113 10 -355 21 -776 36 -348 13 -356 14 -363 41 -5 19 -2 20
116 14 309 -13 792 -40 932 -50 l80 -6 45 150 c25 83 46 147 48 142 2 -5 -15
-70 -38 -144z m835 -603 l8 -102 -27 -17 c-26 -17 -28 -17 -44 -1 -14 14 -17
39 -17 155 0 104 3 137 12 134 7 -3 15 7 19 24 4 15 9 33 13 38 8 14 28 -112
36 -231z"/>
<path d="M4744 3056 c-3 -21 -4 -55 -1 -77 3 -21 2 -39 -1 -39 -4 0 -7 -14 -6
-32 1 -35 20 -50 30 -24 6 15 8 15 20 -1 11 -15 15 -15 22 -5 7 11 11 10 16
-3 5 -14 14 -16 41 -11 23 5 35 3 35 -4 0 -7 6 -10 13 -7 6 2 20 -2 29 -11 14
-12 20 -12 33 -2 12 10 15 10 15 0 0 -10 3 -10 16 0 12 11 15 11 12 0 -2 -7 3
-15 11 -18 9 -3 11 0 6 8 -6 10 -4 11 6 4 8 -5 22 -7 32 -6 11 2 17 -3 17 -17
0 -11 5 -23 10 -26 17 -10 2 -24 -20 -18 -25 7 -26 -4 -2 -30 12 -15 14 -21 5
-24 -18 -6 -16 -23 2 -23 8 0 15 7 15 15 0 8 6 15 13 15 9 0 8 3 -2 9 -11 7
-9 10 8 16 15 4 21 15 21 35 0 16 -5 32 -10 35 -7 4 -9 -2 -7 -17 2 -12 2 -17
0 -10 -3 6 -9 12 -15 12 -6 0 -3 11 6 24 9 14 13 32 10 40 -3 9 -1 16 5 16 6
0 11 5 11 11 0 5 -4 8 -8 5 -4 -2 -14 0 -22 5 -13 9 -13 10 0 8 35 -3 37 1 33
63 -2 35 -5 64 -7 65 -2 3 -44 9 -111 18 -22 3 -71 10 -110 15 -38 6 -91 13
-117 16 l-47 7 -7 -37z"/>
<path d="M5727 2870 c-9 -14 -17 -29 -17 -33 0 -5 -12 -37 -26 -71 -14 -33
-33 -79 -42 -101 -8 -22 -26 -63 -38 -91 -43 -97 -59 -89 186 -86 298 5 340 8
359 27 15 14 13 19 -24 50 -22 19 -56 42 -75 52 -61 31 -122 83 -216 181 l-90
96 -17 -24z"/>
<path d="M1478 2691 c-2 -17 0 -61 6 -98 21 -144 1 -241 -60 -282 -29 -20 -40
-22 -91 -15 -53 6 -64 12 -130 71 -62 56 -75 63 -100 57 -15 -4 -32 -10 -38
-14 -5 -4 -22 -10 -37 -14 -35 -8 -42 -33 -23 -87 23 -64 13 -105 -30 -124
-35 -14 -35 -15 -35 -77 0 -82 -22 -127 -75 -152 -22 -11 -53 -32 -70 -48 -22
-20 -40 -28 -67 -28 -20 0 -39 4 -43 9 -3 5 -30 15 -60 22 -31 7 -60 18 -66
26 -6 7 -17 13 -24 13 -7 0 -18 7 -25 15 -18 21 -95 62 -132 70 -18 4 -40 13
-48 20 -29 24 -49 25 -70 3 -16 -18 -20 -34 -19 -87 2 -89 -19 -132 -99 -208
-62 -60 -67 -62 -104 -57 l-38 7 0 -158 0 -157 53 8 c28 5 221 9 427 9 206 0
483 4 614 9 203 8 242 12 256 26 14 14 18 47 24 187 4 93 5 196 1 229 -10 90
-7 93 165 109 261 26 422 52 424 69 1 5 -19 11 -44 13 -59 4 -91 18 -114 50
-21 29 -23 79 -6 123 6 15 7 60 3 115 l-8 90 -36 -2 c-26 -1 -49 9 -90 36 -53
37 -54 39 -64 102 -13 81 -20 92 -54 84 -23 -5 -28 -2 -36 27 -13 42 -31 46
-37 9z"/>
<path d="M5119 2675 c-3 -24 -9 -31 -31 -33 -16 -2 -28 -8 -28 -13 0 -5 -11
-7 -25 -3 -13 3 -38 1 -54 -4 -22 -8 -31 -7 -34 2 -3 7 -22 21 -43 31 -34 16
-38 16 -49 1 -7 -9 -21 -16 -31 -16 -14 0 -8 -9 24 -36 45 -38 52 -54 25 -54
-15 0 -16 2 -3 10 13 8 13 10 -1 10 -9 0 -22 7 -29 15 -7 8 -25 15 -41 15 -34
0 -36 6 -9 35 19 21 19 21 -5 23 -19 1 -23 -2 -18 -16 5 -13 4 -15 -8 -6 -14
10 -59 17 -59 9 0 -3 14 -11 30 -20 17 -9 30 -22 30 -31 0 -8 4 -13 9 -9 5 3
12 1 16 -5 3 -5 15 -10 26 -10 11 0 17 -4 14 -10 -3 -5 1 -10 9 -10 9 0 16 -7
16 -15 0 -23 50 -32 65 -11 17 22 28 20 20 -4 -5 -16 -2 -20 14 -20 14 0 19 5
15 15 -5 11 1 15 24 15 20 0 33 -6 36 -17 5 -15 15 -17 56 -15 42 3 50 7 50
24 0 10 -4 16 -10 13 -6 -3 -7 1 -4 9 3 9 10 13 15 10 10 -6 10 77 -1 121 l-7
30 -4 -30z"/>
<path d="M5190 2454 c-273 -14 -490 -28 -486 -31 3 -3 114 0 248 6 134 6 443
14 688 17 245 4 447 8 449 10 5 4 -812 2 -899 -2z"/>
<path d="M6119 2446 c-2 -3 -245 -9 -539 -15 -652 -14 -1059 -34 -1015 -52 31
-12 143 -11 147 2 2 7 56 12 153 14 109 2 132 1 85 -5 -46 -5 -22 -7 80 -4 80
2 262 7 405 11 143 4 242 10 220 14 -32 5 177 12 424 14 26 0 46 5 48 13 5 12
0 16 -8 8z"/>
<path d="M2935 2317 c-31 -10 -44 -21 -59 -50 -15 -32 -16 -42 -6 -68 19 -44
47 -59 112 -59 51 0 59 3 76 28 35 48 32 93 -7 133 -32 31 -53 34 -116 16z"/>
<path d="M3250 2302 c-46 -37 -35 -133 19 -161 21 -12 80 3 94 23 12 17 -2 77
-26 111 -35 51 -52 56 -87 27z"/>
<path d="M3910 1487 c-26 -7 -129 -10 -244 -9 -150 1 -202 -1 -208 -11 -13
-21 -9 -116 12 -241 10 -65 21 -120 24 -123 2 -3 116 -9 253 -14 136 -5 344
-13 462 -19 117 -5 218 -7 223 -4 23 14 -31 197 -73 250 -16 20 -29 45 -29 55
0 19 40 32 79 24 41 -8 165 -21 226 -24 27 -1 28 -3 11 -13 -13 -7 -52 -8
-118 -4 -54 4 -103 4 -108 1 -6 -4 0 -20 14 -38 13 -18 39 -79 56 -137 18 -58
37 -110 42 -116 5 -7 24 -10 47 -7 21 3 62 -2 92 -10 51 -15 143 -17 156 -3
12 11 -17 85 -50 128 -18 24 -50 51 -70 61 -42 20 -50 52 -16 62 17 6 18 9 8
16 -15 9 -14 11 16 27 18 10 16 11 -14 12 -19 0 -32 3 -29 6 4 3 38 2 78 -2
45 -4 67 -10 58 -15 -9 -6 -7 -9 9 -9 12 0 23 4 25 10 2 6 24 7 55 3 29 -3 50
-9 47 -14 -6 -10 56 -22 87 -16 15 3 8 5 -18 6 -23 0 -45 5 -48 11 -4 6 5 8
22 5 117 -20 145 -27 197 -48 95 -39 121 -66 180 -190 30 -62 64 -141 77 -177
25 -72 27 -76 34 -68 3 3 -4 34 -15 69 -11 35 -20 67 -20 70 0 3 38 9 85 12
63 4 94 2 120 -9 38 -15 325 -26 325 -11 0 23 -35 70 -77 102 -58 44 -113 60
-283 80 -287 34 -265 29 -319 77 -27 24 -47 45 -45 47 2 2 10 -2 18 -8 8 -7
17 -8 20 -3 7 12 -3 22 -24 22 -9 0 -38 14 -66 32 -54 35 -80 40 -299 63 -77
7 -174 18 -215 24 -98 14 -100 14 -100 -4 0 -8 -7 -15 -15 -15 -8 0 -15 7 -15
15 0 8 -7 15 -16 15 -8 0 -12 -5 -9 -10 9 -15 -21 -23 -60 -16 -24 5 -33 11
-28 21 3 9 -1 15 -11 15 -9 0 -16 -7 -16 -15 0 -21 -35 -19 -51 3 -11 15 -51
25 -179 45 -178 29 -201 30 -270 14z"/>
<path d="M1670 1460 c-6 -11 -16 -19 -22 -17 -16 3 -27 -70 -36 -252 -9 -190
-15 -183 145 -180 163 2 186 8 199 47 6 21 7 52 2 85 -5 29 -11 90 -13 136 -5
81 -15 111 -40 111 -6 0 -33 11 -60 25 -27 13 -52 22 -57 19 -5 -3 -28 6 -53
20 -52 31 -52 31 -65 6z"/>
<path d="M4728 1299 c-5 -3 28 -9 74 -13 115 -9 190 -25 185 -39 -2 -8 -29
-11 -80 -9 -47 2 -77 0 -77 -6 0 -6 22 -52 49 -104 47 -87 52 -93 83 -95 18
-2 108 -6 201 -10 191 -9 183 -13 142 75 -38 83 -63 112 -93 112 -14 0 -65 5
-113 11 -67 9 -86 15 -82 25 4 11 20 13 76 7 52 -4 68 -3 63 5 -4 7 -31 12
-61 12 -33 0 -59 5 -68 14 -10 10 -17 12 -25 4 -11 -11 -102 -2 -102 10 0 9
-158 10 -172 1z"/>
<path d="M2492 860 c7 -11 16 -20 21 -20 4 0 5 -4 2 -10 -8 -13 39 -82 49 -72
4 4 7 3 6 -3 -1 -5 -1 -12 0 -15 8 -21 9 -60 0 -65 -5 -3 -10 -22 -10 -41 l0
-34 -50 0 c-38 0 -50 4 -50 15 0 10 -10 15 -30 15 -20 0 -30 -5 -30 -15 0 -24
-28 -18 -32 7 -5 32 -28 35 -28 4 0 -14 -5 -26 -11 -26 -7 0 -10 -48 -8 -152
l2 -153 -44 1 -44 2 45 -14 c39 -13 62 -13 175 0 72 9 177 20 235 26 185 18
177 15 174 59 -1 21 2 63 7 92 5 30 12 120 15 200 6 131 5 147 -10 152 -14 6
-15 11 -6 28 9 15 9 24 1 32 -8 8 -11 7 -11 -5 0 -11 -6 -15 -20 -11 -19 5
-27 -10 -21 -41 1 -5 -6 -3 -16 4 -10 8 -15 11 -11 6 11 -13 -44 -68 -64 -63
-10 3 -16 1 -12 -4 3 -5 -13 -9 -36 -9 -23 0 -39 4 -36 8 2 4 -4 8 -15 9 -10
1 -30 13 -44 28 -15 14 -31 23 -36 20 -5 -4 -9 2 -9 12 0 19 -32 53 -50 53 -6
0 -5 -8 2 -20z"/>
<path d="M5406 865 c4 -8 -2 -27 -11 -42 -16 -23 -16 -25 -1 -20 10 4 16 1 16
-7 0 -10 -30 -15 -117 -19 -65 -3 -128 -9 -141 -13 -18 -5 -21 -3 -16 10 4 10
1 16 -9 16 -9 0 -18 -9 -22 -20 -6 -18 -13 -19 -116 -15 -60 2 -108 1 -105 -4
11 -17 -29 -47 -66 -49 -35 -2 -37 0 -47 35 -15 52 -15 53 18 53 16 0 34 6 40
14 7 8 30 17 52 21 25 4 39 12 39 22 0 16 -33 10 -59 -11 -8 -6 -60 -11 -126
-12 -117 -1 -176 -15 -115 -27 23 -5 31 -11 28 -24 -3 -16 -20 -18 -183 -19
-101 -1 -219 -8 -270 -16 l-90 -15 75 -7 c41 -4 113 -15 160 -23 165 -30 175
-31 194 -21 16 9 18 7 12 -7 -4 -13 -2 -16 9 -12 8 4 19 -2 25 -11 10 -15 11
-15 7 3 -3 14 2 22 12 23 50 7 263 22 371 26 69 3 163 7 210 11 230 15 251 18
241 28 -6 6 -56 7 -145 1 -90 -6 -135 -6 -133 1 2 6 64 14 138 18 146 8 183
21 177 60 -3 21 -23 27 -23 8 0 -5 -3 -13 -7 -17 -5 -4 -8 9 -8 29 0 20 -4 39
-10 42 -6 3 -7 -1 -4 -10z"/>
<path d="M1460 856 c0 -7 7 -19 15 -26 20 -17 19 -56 -2 -64 -61 -24 101 -41
422 -45 88 -1 174 -4 191 -7 31 -6 31 -6 37 48 12 100 25 94 -215 101 -341 11
-448 9 -448 -7z"/>
<path d="M3467 794 c-10 -10 -9 -132 1 -138 5 -3 118 -7 251 -10 134 -3 246
-8 250 -12 3 -4 -9 -5 -26 -2 -18 2 -33 4 -33 3 0 -2 6 -21 14 -43 13 -37 13
-44 -5 -78 -28 -56 -25 -97 12 -139 27 -30 28 -35 13 -36 -11 -1 4 -6 31 -11
55 -11 195 -2 195 13 0 4 8 6 18 2 13 -5 14 -3 6 6 -9 10 -21 10 -50 2 -55
-15 -56 -15 -29 25 19 28 25 50 25 90 0 62 19 144 35 145 5 1 28 0 50 -1 22
-1 38 0 35 3 -10 9 -218 46 -318 56 -102 11 -142 24 -142 48 0 18 10 16 50 -8
24 -15 54 -22 105 -24 38 -1 117 -9 175 -18 129 -20 308 -37 375 -37 41 1 47
3 31 11 -11 7 -38 9 -68 5 -39 -5 -56 -3 -76 10 -17 11 -48 18 -88 18 -34 1
-57 4 -50 8 10 7 -57 14 -79 8 -5 -2 -21 -4 -35 -6 l-25 -4 25 10 c19 7 10 8
-35 5 -39 -3 -50 -1 -30 3 28 8 27 8 -19 15 -27 4 -77 7 -112 7 -41 0 -64 4
-64 11 0 6 -9 9 -20 6 -11 -3 -18 -1 -14 4 3 5 -5 9 -16 9 -15 0 -20 5 -17 14
6 15 5 15 -248 31 -50 4 -94 3 -98 -1z"/>
<path d="M6047 793 c-4 -3 -7 -19 -7 -35 0 -26 -3 -28 -41 -28 -22 0 -49 5
-60 11 -19 10 -19 9 -9 -10 6 -12 16 -21 23 -22 7 -1 -6 -5 -28 -10 -27 -7
-41 -6 -43 1 -5 13 -32 13 -32 0 0 -5 -6 -10 -14 -10 -8 0 -13 7 -12 16 0 9
-5 19 -13 22 -8 2 -11 0 -8 -5 3 -5 -18 -9 -51 -9 -104 2 -1063 -49 -1117 -59
-11 -2 -24 -4 -30 -4 -6 -1 -6 -4 0 -10 6 -5 104 -3 240 5 348 20 834 44 890
44 90 0 34 -19 -78 -26 -64 -4 -103 -10 -95 -15 7 -5 -25 -9 -77 -9 -49 0
-198 -7 -330 -15 -132 -9 -320 -17 -419 -19 -135 -3 -181 -7 -187 -18 -7 -11
-11 -11 -17 0 -11 16 -94 12 -99 -4 -2 -7 16 -14 43 -18 26 -3 62 -15 80 -27
32 -19 35 -19 51 -4 13 14 14 18 2 25 -18 12 30 30 74 29 21 -1 25 -3 12 -6
-11 -3 -24 -9 -30 -15 -7 -6 -5 -8 4 -6 8 2 27 -16 43 -40 25 -36 35 -42 64
-42 28 0 38 6 58 38 l24 38 93 -8 c52 -4 182 -14 289 -23 107 -8 238 -20 290
-25 52 -6 118 -11 145 -11 62 -2 72 -10 80 -62 5 -24 18 -52 34 -68 15 -14 25
-31 23 -38 -5 -14 77 -15 98 -1 8 5 11 10 7 10 -5 0 5 18 22 39 35 44 39 80
13 104 -36 33 -59 20 -72 -37 -6 -30 -7 -29 -17 19 -6 28 -14 71 -18 97 l-7
46 81 4 c69 3 80 1 75 -12 -4 -8 -9 -39 -12 -67 l-4 -53 148 0 c82 0 167 5
189 11 50 14 194 161 229 234 13 27 23 51 21 53 -6 6 -48 -19 -90 -53 -71 -57
-72 -57 -228 -45 -78 6 -146 12 -152 13 -5 0 -31 -2 -57 -7 -27 -4 -55 -3 -64
2 -21 12 -12 17 59 32 46 9 61 17 70 37 9 21 8 27 -8 39 -20 15 -38 18 -48 7z"/>
<path d="M4416 510 c8 -122 15 -161 39 -216 l24 -54 60 0 c72 0 112 12 66 20
l-29 5 37 37 c40 40 48 77 21 99 -20 17 -33 -2 -35 -51 -1 -22 -3 -27 -6 -15
-3 11 -9 25 -15 32 -5 6 -8 20 -7 30 1 10 -1 40 -6 66 -7 48 -8 48 -44 46 -42
-3 -97 23 -104 48 -3 10 -3 -11 -1 -47z"/>
</g>
</svg>
